<svg xmlns="http://www.w3.org/2000/svg" width="223.471" height="60"><path d="M105.465 19.364c0 10.513-6.597 19.274-17.625 19.274-11.029 0-17.625-8.762-17.625-19.274S76.811.092 87.84.092c11.028 0 17.625 8.76 17.625 19.272zm-28.81 0c0 7.06 3.299 14.019 11.185 14.019 7.885 0 11.184-6.959 11.184-14.019S95.725 5.348 87.84 5.348c-7.886 0-11.185 6.957-11.185 14.016zm49.936.672c-.465-3.249-2.834-5.001-6.082-5.001-3.04 0-7.317 1.598-7.317 9.689 0 4.433 1.96 9.121 7.063 9.121 3.398 0 5.771-2.269 6.337-6.081h5.875c-1.082 6.903-5.361 10.719-12.212 10.719-8.35 0-12.938-5.927-12.938-13.759 0-8.041 4.381-14.327 13.143-14.327 6.183 0 11.441 3.092 12.007 9.639h-5.876zm32.156 17.726h-5.771v-3.709h-.104c-1.443 2.678-4.637 4.431-7.576 4.431-6.955 0-9.945-3.503-9.945-10.46V11.119h5.875v16.338c0 4.688 1.906 6.389 5.103 6.389 4.893 0 6.544-3.143 6.544-7.268V11.119h5.875v26.643zm4.43-36.795h5.874v36.795h-5.874V.967zm33.755 36.795h-5.771v-3.709h-.104c-1.443 2.678-4.639 4.431-7.574 4.431-6.959 0-9.948-3.503-9.948-10.46V11.119h5.876v16.338c0 4.688 1.906 6.389 5.101 6.389 4.899 0 6.546-3.143 6.546-7.268V11.119h5.876v26.643zm8.706-8.553c.31 3.399 2.887 4.637 6.031 4.637 2.217 0 6.081-.463 5.925-3.504-.154-3.092-4.432-3.451-8.709-4.432-4.328-.928-8.555-2.473-8.555-7.885 0-5.824 6.287-7.628 11.13-7.628 5.465 0 10.413 2.267 11.135 8.193h-6.134c-.515-2.782-2.834-3.556-5.411-3.556-1.7 0-4.843.413-4.843 2.731 0 2.888 4.329 3.298 8.657 4.277 4.276.98 8.606 2.525 8.606 7.783 0 6.337-6.39 8.656-11.906 8.656-6.699 0-11.698-2.987-11.802-9.274h5.876z" fill="#87888A"/><g fill="#202C59"><path d="M70.215 43.18h9.022v1.977h-6.736v3.422h5.912v1.868h-5.912v5.801h-2.286V43.18zm9.538 0h2.088v1.977h-2.088V43.18zm0 3.607h2.088v9.46h-2.088v-9.46zm3.28 0h1.976v1.388l.037.038a3.39 3.39 0 012.947-1.683c2.049 0 3.349 1.098 3.349 3.22v6.497h-2.087V50.3c-.037-1.482-.622-2.125-1.85-2.125-1.391 0-2.287 1.103-2.287 2.49v5.582h-2.085v-9.46zm17.355 7.357c0 .512.111.713.495.713.126 0 .291 0 .512-.037v1.448c-.31.107-.97.235-1.316.235-.844 0-1.447-.291-1.612-1.153-.822.807-2.159 1.153-3.275 1.153-1.702 0-3.24-.916-3.24-2.762 0-2.36 1.886-2.745 3.643-2.947 1.5-.274 2.836-.11 2.836-1.335 0-1.079-1.116-1.284-1.958-1.284-1.171 0-1.994.478-2.086 1.503h-2.086c.146-2.435 2.214-3.147 4.301-3.147 1.849 0 3.788.748 3.788 2.747v4.866zm-2.086-2.635c-.643.419-1.646.402-2.564.566-.895.146-1.7.478-1.7 1.574 0 .934 1.19 1.207 1.922 1.207.915 0 2.343-.476 2.343-1.792v-1.555zm3.263-4.722h1.977v1.388l.036.038a3.389 3.389 0 012.946-1.683c2.05 0 3.351 1.098 3.351 3.22v6.497h-2.088V50.3c-.037-1.482-.621-2.125-1.849-2.125-1.391 0-2.287 1.103-2.287 2.49v5.582h-2.086v-9.46zm15.818 3.165c-.163-1.153-1.007-1.777-2.159-1.777-1.082 0-2.6.568-2.6 3.443 0 1.575.695 3.238 2.508 3.238 1.208 0 2.051-.804 2.251-2.159h2.087c-.383 2.452-1.903 3.806-4.338 3.806-2.965 0-4.593-2.104-4.593-4.885 0-2.854 1.556-5.088 4.666-5.088 2.196 0 4.063 1.098 4.265 3.422h-2.087zm2.768-6.772h2.088v1.977h-2.088V43.18zm0 3.607h2.088v9.46h-2.088v-9.46zm11.203 7.357c0 .512.109.713.493.713.129 0 .292 0 .514-.037v1.448c-.312.107-.971.235-1.316.235-.843 0-1.446-.291-1.612-1.153-.823.807-2.159 1.153-3.275 1.153-1.703 0-3.241-.916-3.241-2.762 0-2.36 1.887-2.745 3.645-2.947 1.499-.274 2.834-.11 2.834-1.335 0-1.079-1.114-1.284-1.957-1.284-1.171 0-1.993.478-2.088 1.503h-2.084c.146-2.435 2.214-3.147 4.301-3.147 1.849 0 3.788.748 3.788 2.747v4.866zm-2.087-2.635c-.64.419-1.646.402-2.563.566-.895.146-1.7.478-1.7 1.574 0 .934 1.19 1.207 1.922 1.207.915 0 2.341-.476 2.341-1.792v-1.555zm3.317-8.329h2.089v13.067h-2.089V43.18zm7.584 0h2.287v13.067h-2.287V43.18zm3.716 3.607h1.975v1.388l.039.038c.623-1.042 1.703-1.683 2.944-1.683 2.052 0 3.351 1.098 3.351 3.22v6.497h-2.085V50.3c-.037-1.482-.624-2.125-1.851-2.125-1.39 0-2.287 1.103-2.287 2.49v5.582h-2.086v-9.46zm8.48 0h1.571v-2.838h2.089v2.838h1.886v1.554h-1.886v5.05c0 .862.074 1.301 1.006 1.301.294 0 .588 0 .88-.07v1.609c-.458.037-.897.109-1.357.109-2.177 0-2.578-.843-2.617-2.416v-5.583h-1.571v-1.554z"/><path d="M159.961 52.056c0 1.483.804 2.801 2.545 2.801 1.208 0 1.941-.529 2.304-1.573h1.979c-.458 2.066-2.213 3.22-4.282 3.22-2.966 0-4.632-2.068-4.632-4.976 0-2.693 1.758-4.997 4.574-4.997 2.984 0 4.815 2.688 4.468 5.525h-6.956zm4.867-1.372c-.071-1.315-.968-2.509-2.38-2.509-1.444 0-2.433 1.103-2.487 2.509h4.867zm2.66-7.504h2.088v13.067h-2.088V43.18zm3.334 0h2.084v13.067h-2.084V43.18zm3.33 0h2.088v1.977h-2.088V43.18zm0 3.607h2.088v9.46h-2.088v-9.46zm12.028 8.968c0 2.836-1.665 4.245-4.648 4.245-1.902 0-4.044-.731-4.228-2.947h2.088c.256 1.19 1.208 1.391 2.27 1.391 1.681 0 2.433-.859 2.433-2.415v-1.445h-.036a3.238 3.238 0 01-2.837 1.664c-3 0-4.244-2.267-4.244-4.977 0-2.544 1.591-4.74 4.279-4.74 1.191 0 2.271.494 2.802 1.554h.036v-1.297h2.086v8.967zm-2.086-4.449c0-1.628-.733-3.131-2.545-3.131-1.849 0-2.488 1.723-2.488 3.297 0 1.556.75 3.129 2.488 3.129 1.849 0 2.545-1.683 2.545-3.295zm4.746.75c0 1.483.806 2.801 2.543 2.801 1.209 0 1.941-.529 2.306-1.573h1.979c-.46 2.066-2.217 3.22-4.285 3.22-2.965 0-4.631-2.068-4.631-4.976 0-2.693 1.759-4.997 4.577-4.997 2.982 0 4.812 2.688 4.467 5.525h-6.956zm4.868-1.372c-.074-1.315-.973-2.509-2.379-2.509-1.446 0-2.435 1.103-2.489 2.509h4.868zm2.605-3.897h1.979v1.388l.036.038a3.387 3.387 0 012.945-1.683c2.048 0 3.349 1.098 3.349 3.22v6.497h-2.087V50.3c-.036-1.482-.622-2.125-1.847-2.125-1.395 0-2.287 1.103-2.287 2.49v5.582h-2.088v-9.46zm15.818 3.165c-.164-1.153-1.007-1.777-2.159-1.777-1.079 0-2.6.568-2.6 3.443 0 1.575.694 3.238 2.507 3.238 1.208 0 2.05-.804 2.252-2.159h2.085c-.384 2.452-1.903 3.806-4.337 3.806-2.965 0-4.595-2.104-4.595-4.885 0-2.854 1.557-5.088 4.669-5.088 2.196 0 4.062 1.098 4.263 3.422h-2.085zm4.342 2.104c0 1.483.806 2.801 2.543 2.801 1.208 0 1.942-.529 2.309-1.573h1.977c-.459 2.066-2.217 3.22-4.285 3.22-2.965 0-4.628-2.068-4.628-4.976 0-2.693 1.756-4.997 4.575-4.997 2.982 0 4.813 2.688 4.465 5.525h-6.956zm4.868-1.372c-.074-1.315-.969-2.509-2.378-2.509-1.445 0-2.434 1.103-2.49 2.509h4.868z"/></g><path fill="#202C59" d="M27.938 20.922l11.325 19.617h7.551L27.938 7.844 9.06 40.539h7.551z"/><path fill="#202C59" d="M20.43 49.694l11.326-19.617-3.776-6.54L9.103 56.233h37.755l-3.775-6.539z"/><path fill="#202C59" d="M49.078 41.848H26.426l-3.776 6.539h37.755L41.527 15.691l-3.775 6.538zm12.095 7.846H44.619l3.76 6.539h16.555zM28.685 6.525l8.276 14.337 3.783-6.526L32.468 0zM7.544 56.247l8.277-14.336-7.543-.014L0 56.233z"/><path fill="#87888A" d="M27.246 40.539l5.222-9.043 5.22 9.043z"/></svg>