<svg version="1.1" id="Layer_1" xmlns="http://www.w3.org/2000/svg" x="0" y="0" viewBox="0 0 50.7 43.9" xml:space="preserve"><style>.st0{fill:#202c59}</style><path class="st0" d="M21.8 16.3l8.8 15.3h5.9L21.8 6.1 7.1 31.6H13z"/><path class="st0" d="M15.9 38.8l8.9-15.3-3-5.1L7.1 43.9h29.5l-3-5.1z"/><path class="st0" d="M38.3 32.7H20.6l-2.9 5.1h29.4L32.4 12.2l-2.9 5.1zm9.4 6.1H34.8l3 5.1h12.9zM22.4 5.1l6.4 11.2 3-5.1L25.3 0zM5.9 43.9l6.4-11.2H6.5L0 43.9z"/><path fill="#87888a" d="M21.3 31.6l4-7 4.1 7z"/></svg>