<?xml version="1.0" encoding="utf-8"?>
<!-- Generator: Adobe Illustrator 14.0.0, SVG Export Plug-In . SVG Version: 6.00 Build 43363)  -->
<!DOCTYPE svg PUBLIC "-//W3C//DTD SVG 1.1//EN" "http://www.w3.org/Graphics/SVG/1.1/DTD/svg11.dtd">
<svg version="1.1" id="Layer_1" xmlns="http://www.w3.org/2000/svg" xmlns:xlink="http://www.w3.org/1999/xlink" x="0px" y="0px"
	 width="223.471px" height="60px" viewBox="0 0 223.471 60" enable-background="new 0 0 223.471 60" xml:space="preserve">
<g>
	<g>
		<path fill="#87888A" d="M105.465,19.364c0,10.513-6.597,19.274-17.625,19.274c-11.029,0-17.625-8.762-17.625-19.274
			S76.811,0.092,87.84,0.092C98.868,0.092,105.465,8.852,105.465,19.364z M76.655,19.364c0,7.06,3.299,14.019,11.185,14.019
			c7.885,0,11.184-6.959,11.184-14.019S95.725,5.348,87.84,5.348C79.954,5.348,76.655,12.305,76.655,19.364z"/>
		<path fill="#87888A" d="M126.591,20.036c-0.465-3.249-2.834-5.001-6.082-5.001c-3.04,0-7.317,1.598-7.317,9.689
			c0,4.433,1.96,9.121,7.063,9.121c3.398,0,5.771-2.269,6.337-6.081h5.875c-1.082,6.903-5.361,10.719-12.212,10.719
			c-8.35,0-12.938-5.927-12.938-13.759c0-8.041,4.381-14.327,13.143-14.327c6.183,0,11.441,3.092,12.007,9.639H126.591z"/>
		<path fill="#87888A" d="M158.747,37.762h-5.771v-3.709h-0.104c-1.443,2.678-4.637,4.431-7.576,4.431
			c-6.955,0-9.945-3.503-9.945-10.46V11.119h5.875v16.338c0,4.688,1.906,6.389,5.103,6.389c4.893,0,6.544-3.143,6.544-7.268V11.119
			h5.875V37.762z"/>
		<path fill="#87888A" d="M163.177,0.967h5.874v36.795h-5.874V0.967z"/>
		<path fill="#87888A" d="M196.932,37.762h-5.771v-3.709h-0.104c-1.443,2.678-4.639,4.431-7.574,4.431
			c-6.959,0-9.948-3.503-9.948-10.46V11.119h5.876v16.338c0,4.688,1.906,6.389,5.101,6.389c4.899,0,6.546-3.143,6.546-7.268V11.119
			h5.876V37.762z"/>
		<path fill="#87888A" d="M205.638,29.209c0.31,3.399,2.887,4.637,6.031,4.637c2.217,0,6.081-0.463,5.925-3.504
			c-0.154-3.092-4.432-3.451-8.709-4.432c-4.328-0.928-8.555-2.473-8.555-7.885c0-5.824,6.287-7.628,11.13-7.628
			c5.465,0,10.413,2.267,11.135,8.193h-6.134c-0.515-2.782-2.834-3.556-5.411-3.556c-1.7,0-4.843,0.413-4.843,2.731
			c0,2.888,4.329,3.298,8.657,4.277c4.276,0.98,8.606,2.525,8.606,7.783c0,6.337-6.39,8.656-11.906,8.656
			c-6.699,0-11.698-2.987-11.802-9.274H205.638z"/>
	</g>
	<g>
		<path fill="#202C59" d="M70.215,43.18h9.022v1.977h-6.736v3.422h5.912v1.868h-5.912v5.801h-2.286V43.18z"/>
		<path fill="#202C59" d="M79.753,43.18h2.088v1.977h-2.088V43.18z M79.753,46.787h2.088v9.46h-2.088V46.787z"/>
		<path fill="#202C59" d="M83.033,46.787h1.976v1.388l0.037,0.038c0.621-1.042,1.702-1.683,2.947-1.683
			c2.049,0,3.349,1.098,3.349,3.22v6.497h-2.087V50.3c-0.037-1.482-0.622-2.125-1.85-2.125c-1.391,0-2.287,1.103-2.287,2.49v5.582
			h-2.085V46.787z"/>
		<path fill="#202C59" d="M100.388,54.144c0,0.512,0.111,0.713,0.495,0.713c0.126,0,0.291,0,0.512-0.037v1.448
			c-0.31,0.107-0.97,0.235-1.316,0.235c-0.844,0-1.447-0.291-1.612-1.153c-0.822,0.807-2.159,1.153-3.275,1.153
			c-1.702,0-3.24-0.916-3.24-2.762c0-2.36,1.886-2.745,3.643-2.947c1.5-0.274,2.836-0.11,2.836-1.335
			c0-1.079-1.116-1.284-1.958-1.284c-1.171,0-1.994,0.478-2.086,1.503h-2.086c0.146-2.435,2.214-3.147,4.301-3.147
			c1.849,0,3.788,0.748,3.788,2.747V54.144z M98.302,51.509c-0.643,0.419-1.646,0.402-2.564,0.566c-0.895,0.146-1.7,0.478-1.7,1.574
			c0,0.934,1.19,1.207,1.922,1.207c0.915,0,2.343-0.476,2.343-1.792V51.509z"/>
		<path fill="#202C59" d="M101.565,46.787h1.977v1.388l0.036,0.038c0.622-1.042,1.701-1.683,2.946-1.683
			c2.05,0,3.351,1.098,3.351,3.22v6.497h-2.088V50.3c-0.037-1.482-0.621-2.125-1.849-2.125c-1.391,0-2.287,1.103-2.287,2.49v5.582
			h-2.086V46.787z"/>
		<path fill="#202C59" d="M117.383,49.952c-0.163-1.153-1.007-1.777-2.159-1.777c-1.082,0-2.6,0.568-2.6,3.443
			c0,1.575,0.695,3.238,2.508,3.238c1.208,0,2.051-0.804,2.251-2.159h2.087c-0.383,2.452-1.903,3.806-4.338,3.806
			c-2.965,0-4.593-2.104-4.593-4.885c0-2.854,1.556-5.088,4.666-5.088c2.196,0,4.063,1.098,4.265,3.422H117.383z"/>
		<path fill="#202C59" d="M120.151,43.18h2.088v1.977h-2.088V43.18z M120.151,46.787h2.088v9.46h-2.088V46.787z"/>
		<path fill="#202C59" d="M131.354,54.144c0,0.512,0.109,0.713,0.493,0.713c0.129,0,0.292,0,0.514-0.037v1.448
			c-0.312,0.107-0.971,0.235-1.316,0.235c-0.843,0-1.446-0.291-1.612-1.153c-0.823,0.807-2.159,1.153-3.275,1.153
			c-1.703,0-3.241-0.916-3.241-2.762c0-2.36,1.887-2.745,3.645-2.947c1.499-0.274,2.834-0.11,2.834-1.335
			c0-1.079-1.114-1.284-1.957-1.284c-1.171,0-1.993,0.478-2.088,1.503h-2.084c0.146-2.435,2.214-3.147,4.301-3.147
			c1.849,0,3.788,0.748,3.788,2.747V54.144z M129.267,51.509c-0.64,0.419-1.646,0.402-2.563,0.566c-0.895,0.146-1.7,0.478-1.7,1.574
			c0,0.934,1.19,1.207,1.922,1.207c0.915,0,2.341-0.476,2.341-1.792V51.509z"/>
		<path fill="#202C59" d="M132.584,43.18h2.089v13.067h-2.089V43.18z"/>
		<path fill="#202C59" d="M140.168,43.18h2.287v13.067h-2.287V43.18z"/>
		<path fill="#202C59" d="M143.884,46.787h1.975v1.388l0.039,0.038c0.623-1.042,1.703-1.683,2.944-1.683
			c2.052,0,3.351,1.098,3.351,3.22v6.497h-2.085V50.3c-0.037-1.482-0.624-2.125-1.851-2.125c-1.39,0-2.287,1.103-2.287,2.49v5.582
			h-2.086V46.787z"/>
		<path fill="#202C59" d="M152.364,46.787h1.571v-2.838h2.089v2.838h1.886v1.554h-1.886v5.05c0,0.862,0.074,1.301,1.006,1.301
			c0.294,0,0.588,0,0.88-0.07v1.609c-0.458,0.037-0.897,0.109-1.357,0.109c-2.177,0-2.578-0.843-2.617-2.416v-5.583h-1.571V46.787z"
			/>
		<path fill="#202C59" d="M159.961,52.056c0,1.483,0.804,2.801,2.545,2.801c1.208,0,1.941-0.529,2.304-1.573h1.979
			c-0.458,2.066-2.213,3.22-4.282,3.22c-2.966,0-4.632-2.068-4.632-4.976c0-2.693,1.758-4.997,4.574-4.997
			c2.984,0,4.815,2.688,4.468,5.525H159.961z M164.828,50.684c-0.071-1.315-0.968-2.509-2.38-2.509
			c-1.444,0-2.433,1.103-2.487,2.509H164.828z"/>
		<path fill="#202C59" d="M167.488,43.18h2.088v13.067h-2.088V43.18z"/>
		<path fill="#202C59" d="M170.822,43.18h2.084v13.067h-2.084V43.18z"/>
		<path fill="#202C59" d="M174.152,43.18h2.088v1.977h-2.088V43.18z M174.152,46.787h2.088v9.46h-2.088V46.787z"/>
		<path fill="#202C59" d="M186.18,55.755c0,2.836-1.665,4.245-4.648,4.245c-1.902,0-4.044-0.731-4.228-2.947h2.088
			c0.256,1.19,1.208,1.391,2.27,1.391c1.681,0,2.433-0.859,2.433-2.415v-1.445h-0.036c-0.586,1.044-1.666,1.664-2.837,1.664
			c-3,0-4.244-2.267-4.244-4.977c0-2.544,1.591-4.74,4.279-4.74c1.191,0,2.271,0.494,2.802,1.554h0.036v-1.297h2.086V55.755z
			 M184.094,51.306c0-1.628-0.733-3.131-2.545-3.131c-1.849,0-2.488,1.723-2.488,3.297c0,1.556,0.75,3.129,2.488,3.129
			C183.398,54.601,184.094,52.918,184.094,51.306z"/>
		<path fill="#202C59" d="M188.84,52.056c0,1.483,0.806,2.801,2.543,2.801c1.209,0,1.941-0.529,2.306-1.573h1.979
			c-0.46,2.066-2.217,3.22-4.285,3.22c-2.965,0-4.631-2.068-4.631-4.976c0-2.693,1.759-4.997,4.577-4.997
			c2.982,0,4.812,2.688,4.467,5.525H188.84z M193.708,50.684c-0.074-1.315-0.973-2.509-2.379-2.509
			c-1.446,0-2.435,1.103-2.489,2.509H193.708z"/>
		<path fill="#202C59" d="M196.313,46.787h1.979v1.388l0.036,0.038c0.621-1.042,1.701-1.683,2.945-1.683
			c2.048,0,3.349,1.098,3.349,3.22v6.497h-2.087V50.3c-0.036-1.482-0.622-2.125-1.847-2.125c-1.395,0-2.287,1.103-2.287,2.49v5.582
			h-2.088V46.787z"/>
		<path fill="#202C59" d="M212.131,49.952c-0.164-1.153-1.007-1.777-2.159-1.777c-1.079,0-2.6,0.568-2.6,3.443
			c0,1.575,0.694,3.238,2.507,3.238c1.208,0,2.05-0.804,2.252-2.159h2.085c-0.384,2.452-1.903,3.806-4.337,3.806
			c-2.965,0-4.595-2.104-4.595-4.885c0-2.854,1.557-5.088,4.669-5.088c2.196,0,4.062,1.098,4.263,3.422H212.131z"/>
		<path fill="#202C59" d="M216.473,52.056c0,1.483,0.806,2.801,2.543,2.801c1.208,0,1.942-0.529,2.309-1.573h1.977
			c-0.459,2.066-2.217,3.22-4.285,3.22c-2.965,0-4.628-2.068-4.628-4.976c0-2.693,1.756-4.997,4.575-4.997
			c2.982,0,4.813,2.688,4.465,5.525H216.473z M221.341,50.684c-0.074-1.315-0.969-2.509-2.378-2.509
			c-1.445,0-2.434,1.103-2.49,2.509H221.341z"/>
	</g>
	<g>
		<polygon fill="#202C59" points="27.938,20.922 39.263,40.539 46.814,40.539 27.938,7.844 9.06,40.539 16.611,40.539 		"/>
		<polygon fill="#202C59" points="20.43,49.694 31.756,30.077 27.98,23.537 9.103,56.233 46.858,56.233 43.083,49.694 		"/>
		<polygon fill="#202C59" points="49.078,41.848 26.426,41.848 22.65,48.387 60.405,48.387 41.527,15.691 37.752,22.229 		"/>
		<polygon fill="#202C59" points="61.173,49.694 44.619,49.694 48.379,56.233 64.934,56.233 		"/>
		<polygon fill="#202C59" points="28.685,6.525 36.961,20.862 40.744,14.336 32.468,0 		"/>
		<polygon fill="#202C59" points="7.544,56.247 15.821,41.911 8.278,41.897 0,56.233 		"/>
		<g>
			<polygon fill="#87888A" points="27.246,40.539 32.468,31.496 37.688,40.539 			"/>
		</g>
	</g>
</g>
</svg>
