<?xml version="1.0" encoding="utf-8"?>
<!-- Generator: Adobe Illustrator 14.0.0, SVG Export Plug-In . SVG Version: 6.00 Build 43363)  -->
<!DOCTYPE svg PUBLIC "-//W3C//DTD SVG 1.1//EN" "http://www.w3.org/Graphics/SVG/1.1/DTD/svg11.dtd">
<svg version="1.1" id="Layer_1" xmlns="http://www.w3.org/2000/svg" xmlns:xlink="http://www.w3.org/1999/xlink" x="0px" y="0px"
	 width="64.934px" height="56.247px" viewBox="0 0 64.934 56.247" enable-background="new 0 0 64.934 56.247" xml:space="preserve">
<g>
	<g>
		<polygon fill="#202C59" points="27.938,20.922 39.263,40.539 46.814,40.539 27.938,7.844 9.06,40.539 16.611,40.539 		"/>
		<polygon fill="#202C59" points="20.43,49.694 31.756,30.077 27.98,23.537 9.103,56.233 46.858,56.233 43.083,49.694 		"/>
		<polygon fill="#202C59" points="49.078,41.848 26.426,41.848 22.65,48.387 60.405,48.387 41.527,15.691 37.752,22.229 		"/>
		<polygon fill="#202C59" points="61.173,49.694 44.619,49.694 48.379,56.233 64.934,56.233 		"/>
		<polygon fill="#202C59" points="28.685,6.525 36.961,20.862 40.744,14.336 32.468,0 		"/>
		<polygon fill="#202C59" points="7.544,56.247 15.821,41.911 8.278,41.897 0,56.233 		"/>
		<g>
			<polygon fill="#87888A" points="27.246,40.539 32.468,31.496 37.688,40.539 			"/>
		</g>
	</g>
</g>
</svg>
