<?xml version="1.0" encoding="utf-8"?>
<!-- Generator: Adobe Illustrator 20.1.0, SVG Export Plug-In . SVG Version: 6.00 Build 0)  -->
<!DOCTYPE svg PUBLIC "-//W3C//DTD SVG 1.1//EN" "http://www.w3.org/Graphics/SVG/1.1/DTD/svg11.dtd">
<svg version="1.1" id="Layer_1" xmlns="http://www.w3.org/2000/svg" xmlns:xlink="http://www.w3.org/1999/xlink" x="0px" y="0px"
	 viewBox="0 0 50.7 43.9" style="enable-background:new 0 0 50.7 43.9;" xml:space="preserve">
<style type="text/css">
	.st0{fill:#202C59;}
	.st1{fill:#87888A;}
</style>
<g>
	<g>
		<polygon class="st0" points="21.8,16.3 30.6,31.6 36.5,31.6 21.8,6.1 7.1,31.6 13,31.6 		"/>
		<polygon class="st0" points="15.9,38.8 24.8,23.5 21.8,18.4 7.1,43.9 36.6,43.9 33.6,38.8 		"/>
		<polygon class="st0" points="38.3,32.7 20.6,32.7 17.7,37.8 47.1,37.8 32.4,12.2 29.5,17.3 		"/>
		<polygon class="st0" points="47.7,38.8 34.8,38.8 37.8,43.9 50.7,43.9 		"/>
		<polygon class="st0" points="22.4,5.1 28.8,16.3 31.8,11.2 25.3,0 		"/>
		<polygon class="st0" points="5.9,43.9 12.3,32.7 6.5,32.7 0,43.9 		"/>
		<g>
			<polygon class="st1" points="21.3,31.6 25.3,24.6 29.4,31.6 			"/>
		</g>
	</g>
</g>
</svg>
